<svg id="visual" viewBox="0 0 720 100" width="720" height="100" xmlns="http://www.w3.org/2000/svg" xmlns:xlink="http://www.w3.org/1999/xlink" version="1.1"><rect x="0" y="0" width="720" height="100" fill="#00abc9"></rect><path d="M0 41L5.2 37.2C10.3 33.3 20.7 25.7 31.2 22.7C41.7 19.7 52.3 21.3 62.8 28.5C73.3 35.7 83.7 48.3 94 52.7C104.3 57 114.7 53 125.2 51.8C135.7 50.7 146.3 52.3 156.8 53.8C167.3 55.3 177.7 56.7 188 56.8C198.3 57 208.7 56 219 51.3C229.3 46.7 239.7 38.3 250.2 39.3C260.7 40.3 271.3 50.7 281.8 49.5C292.3 48.3 302.7 35.7 313 34.8C323.3 34 333.7 45 344.2 45.3C354.7 45.7 365.3 35.3 375.8 37.5C386.3 39.7 396.7 54.3 407 60.8C417.3 67.3 427.7 65.7 438.2 63.8C448.7 62 459.3 60 469.8 53.7C480.3 47.3 490.7 36.7 501 31C511.3 25.3 521.7 24.7 532 26.2C542.3 27.7 552.7 31.3 563.2 35.7C573.7 40 584.3 45 594.8 47.2C605.3 49.3 615.7 48.7 626 48C636.3 47.3 646.7 46.7 657.2 41.8C667.7 37 678.3 28 688.8 31.5C699.3 35 709.7 51 714.8 59L720 67L720 101L714.8 101C709.7 101 699.3 101 688.8 101C678.3 101 667.7 101 657.2 101C646.7 101 636.3 101 626 101C615.7 101 605.3 101 594.8 101C584.3 101 573.7 101 563.2 101C552.7 101 542.3 101 532 101C521.7 101 511.3 101 501 101C490.7 101 480.3 101 469.8 101C459.3 101 448.7 101 438.2 101C427.7 101 417.3 101 407 101C396.7 101 386.3 101 375.8 101C365.3 101 354.7 101 344.2 101C333.7 101 323.3 101 313 101C302.7 101 292.3 101 281.8 101C271.3 101 260.7 101 250.2 101C239.7 101 229.3 101 219 101C208.7 101 198.3 101 188 101C177.7 101 167.3 101 156.8 101C146.3 101 135.7 101 125.2 101C114.7 101 104.3 101 94 101C83.7 101 73.3 101 62.8 101C52.3 101 41.7 101 31.2 101C20.7 101 10.3 101 5.2 101L0 101Z" fill="#00abc9"></path><path d="M0 62L5.2 57C10.3 52 20.7 42 31.2 38.8C41.7 35.7 52.3 39.3 62.8 40.3C73.3 41.3 83.7 39.7 94 37.8C104.3 36 114.7 34 125.2 39.7C135.7 45.3 146.3 58.7 156.8 58.7C167.3 58.7 177.7 45.3 188 44.8C198.3 44.3 208.7 56.7 219 56.2C229.3 55.7 239.7 42.3 250.2 36.7C260.7 31 271.3 33 281.8 36.5C292.3 40 302.7 45 313 45.7C323.3 46.3 333.7 42.7 344.2 42C354.7 41.3 365.3 43.7 375.8 42.7C386.3 41.7 396.7 37.3 407 37.7C417.3 38 427.7 43 438.2 44.3C448.7 45.7 459.3 43.3 469.8 47.8C480.3 52.3 490.7 63.7 501 62.3C511.3 61 521.7 47 532 46.5C542.3 46 552.7 59 563.2 58.7C573.7 58.3 584.3 44.7 594.8 38C605.3 31.3 615.7 31.7 626 33.2C636.3 34.7 646.7 37.3 657.2 36.8C667.7 36.3 678.3 32.7 688.8 32.8C699.3 33 709.7 37 714.8 39L720 41L720 101L714.8 101C709.7 101 699.3 101 688.8 101C678.3 101 667.7 101 657.2 101C646.7 101 636.3 101 626 101C615.7 101 605.3 101 594.8 101C584.3 101 573.7 101 563.2 101C552.7 101 542.3 101 532 101C521.7 101 511.3 101 501 101C490.7 101 480.3 101 469.8 101C459.3 101 448.7 101 438.2 101C427.7 101 417.3 101 407 101C396.7 101 386.3 101 375.8 101C365.3 101 354.7 101 344.2 101C333.7 101 323.3 101 313 101C302.7 101 292.3 101 281.8 101C271.3 101 260.7 101 250.2 101C239.7 101 229.3 101 219 101C208.7 101 198.3 101 188 101C177.7 101 167.3 101 156.8 101C146.3 101 135.7 101 125.2 101C114.7 101 104.3 101 94 101C83.7 101 73.3 101 62.8 101C52.3 101 41.7 101 31.2 101C20.7 101 10.3 101 5.2 101L0 101Z" fill="#1086ac"></path><path d="M0 45L5.2 44.8C10.3 44.7 20.7 44.3 31.2 50.3C41.7 56.3 52.3 68.7 62.8 74.5C73.3 80.3 83.7 79.7 94 77.8C104.3 76 114.7 73 125.2 71.8C135.7 70.7 146.3 71.3 156.8 69.2C167.3 67 177.7 62 188 60.3C198.3 58.7 208.7 60.3 219 59.7C229.3 59 239.7 56 250.2 55.8C260.7 55.7 271.3 58.3 281.8 60.8C292.3 63.3 302.7 65.7 313 65C323.3 64.3 333.7 60.7 344.2 59C354.7 57.3 365.3 57.7 375.8 58.3C386.3 59 396.7 60 407 61.5C417.3 63 427.7 65 438.2 64.8C448.7 64.7 459.3 62.3 469.8 63.3C480.3 64.3 490.7 68.7 501 65.8C511.3 63 521.7 53 532 53.3C542.3 53.7 552.7 64.3 563.2 66.8C573.7 69.3 584.3 63.7 594.8 58.2C605.3 52.7 615.7 47.3 626 48.8C636.3 50.3 646.7 58.7 657.2 60.5C667.7 62.3 678.3 57.7 688.8 55.5C699.3 53.3 709.7 53.7 714.8 53.8L720 54L720 101L714.8 101C709.7 101 699.3 101 688.8 101C678.3 101 667.7 101 657.2 101C646.7 101 636.3 101 626 101C615.7 101 605.3 101 594.8 101C584.3 101 573.7 101 563.2 101C552.7 101 542.3 101 532 101C521.7 101 511.3 101 501 101C490.7 101 480.3 101 469.8 101C459.3 101 448.7 101 438.2 101C427.7 101 417.3 101 407 101C396.7 101 386.3 101 375.8 101C365.3 101 354.7 101 344.2 101C333.7 101 323.3 101 313 101C302.7 101 292.3 101 281.8 101C271.3 101 260.7 101 250.2 101C239.7 101 229.3 101 219 101C208.7 101 198.3 101 188 101C177.7 101 167.3 101 156.8 101C146.3 101 135.7 101 125.2 101C114.7 101 104.3 101 94 101C83.7 101 73.3 101 62.8 101C52.3 101 41.7 101 31.2 101C20.7 101 10.3 101 5.2 101L0 101Z" fill="#1f638b"></path><path d="M0 63L5.2 67.2C10.3 71.3 20.7 79.7 31.2 83.8C41.7 88 52.3 88 62.8 87.7C73.3 87.3 83.7 86.7 94 86.2C104.3 85.7 114.7 85.3 125.2 82C135.7 78.7 146.3 72.3 156.8 72.2C167.3 72 177.7 78 188 76.7C198.3 75.3 208.7 66.7 219 64.8C229.3 63 239.7 68 250.2 72.3C260.7 76.7 271.3 80.3 281.8 79C292.3 77.7 302.7 71.3 313 68.3C323.3 65.3 333.7 65.7 344.2 65.7C354.7 65.7 365.3 65.3 375.8 64.3C386.3 63.3 396.7 61.7 407 60.7C417.3 59.7 427.7 59.3 438.2 62.8C448.7 66.3 459.3 73.7 469.8 78.7C480.3 83.7 490.7 86.3 501 85C511.3 83.7 521.7 78.3 532 73.2C542.3 68 552.7 63 563.2 62C573.7 61 584.3 64 594.8 69C605.3 74 615.7 81 626 81.5C636.3 82 646.7 76 657.2 73.8C667.7 71.7 678.3 73.3 688.8 71.5C699.3 69.7 709.7 64.3 714.8 61.7L720 59L720 101L714.8 101C709.7 101 699.3 101 688.8 101C678.3 101 667.7 101 657.2 101C646.7 101 636.3 101 626 101C615.7 101 605.3 101 594.8 101C584.3 101 573.7 101 563.2 101C552.7 101 542.3 101 532 101C521.7 101 511.3 101 501 101C490.7 101 480.3 101 469.8 101C459.3 101 448.7 101 438.2 101C427.7 101 417.3 101 407 101C396.7 101 386.3 101 375.8 101C365.3 101 354.7 101 344.2 101C333.7 101 323.3 101 313 101C302.7 101 292.3 101 281.8 101C271.3 101 260.7 101 250.2 101C239.7 101 229.3 101 219 101C208.7 101 198.3 101 188 101C177.7 101 167.3 101 156.8 101C146.3 101 135.7 101 125.2 101C114.7 101 104.3 101 94 101C83.7 101 73.3 101 62.8 101C52.3 101 41.7 101 31.2 101C20.7 101 10.3 101 5.2 101L0 101Z" fill="#224267"></path><path d="M0 83L5.2 81.3C10.3 79.7 20.7 76.3 31.2 75.5C41.7 74.7 52.3 76.3 62.8 76.2C73.3 76 83.7 74 94 74.2C104.3 74.3 114.7 76.7 125.2 79.3C135.7 82 146.3 85 156.8 86.2C167.3 87.3 177.7 86.7 188 85.7C198.3 84.7 208.7 83.3 219 84.5C229.3 85.7 239.7 89.3 250.2 89.7C260.7 90 271.3 87 281.8 86.3C292.3 85.7 302.7 87.3 313 85.8C323.3 84.3 333.7 79.7 344.2 78.7C354.7 77.7 365.3 80.3 375.8 79.7C386.3 79 396.7 75 407 76.8C417.3 78.7 427.7 86.3 438.2 88.5C448.7 90.7 459.3 87.3 469.8 87C480.3 86.7 490.7 89.3 501 89.2C511.3 89 521.7 86 532 86C542.3 86 552.7 89 563.2 88.2C573.7 87.3 584.3 82.7 594.8 82.3C605.3 82 615.7 86 626 86.2C636.3 86.3 646.7 82.7 657.2 79.7C667.7 76.7 678.3 74.3 688.8 75.5C699.3 76.7 709.7 81.3 714.8 83.7L720 86L720 101L714.8 101C709.7 101 699.3 101 688.8 101C678.3 101 667.7 101 657.2 101C646.7 101 636.3 101 626 101C615.7 101 605.3 101 594.8 101C584.3 101 573.7 101 563.2 101C552.7 101 542.3 101 532 101C521.7 101 511.3 101 501 101C490.7 101 480.3 101 469.8 101C459.3 101 448.7 101 438.2 101C427.7 101 417.3 101 407 101C396.7 101 386.3 101 375.8 101C365.3 101 354.7 101 344.2 101C333.7 101 323.3 101 313 101C302.7 101 292.3 101 281.8 101C271.3 101 260.7 101 250.2 101C239.7 101 229.3 101 219 101C208.7 101 198.3 101 188 101C177.7 101 167.3 101 156.8 101C146.3 101 135.7 101 125.2 101C114.7 101 104.3 101 94 101C83.7 101 73.3 101 62.8 101C52.3 101 41.7 101 31.2 101C20.7 101 10.3 101 5.2 101L0 101Z" fill="#1c2442"></path></svg>