<svg id="visual" viewBox="0 0 960 540" width="960" height="540" xmlns="http://www.w3.org/2000/svg" xmlns:xlink="http://www.w3.org/1999/xlink" version="1.1"><rect x="0" y="0" width="960" height="540" fill="#00abc9"></rect><path d="M0 231L11.5 214.5C23 198 46 165 68.8 180.2C91.7 195.3 114.3 258.7 137.2 286C160 313.3 183 304.7 205.8 307.7C228.7 310.7 251.3 325.3 274.2 291.8C297 258.3 320 176.7 342.8 149.8C365.7 123 388.3 151 411.2 190.5C434 230 457 281 480 315.3C503 349.7 526 367.3 548.8 344.7C571.7 322 594.3 259 617.2 207.7C640 156.3 663 116.7 685.8 127.8C708.7 139 731.3 201 754.2 245.2C777 289.3 800 315.7 822.8 324.3C845.7 333 868.3 324 891.2 287C914 250 937 185 948.5 152.5L960 120L960 541L948.5 541C937 541 914 541 891.2 541C868.3 541 845.7 541 822.8 541C800 541 777 541 754.2 541C731.3 541 708.7 541 685.8 541C663 541 640 541 617.2 541C594.3 541 571.7 541 548.8 541C526 541 503 541 480 541C457 541 434 541 411.2 541C388.3 541 365.7 541 342.8 541C320 541 297 541 274.2 541C251.3 541 228.7 541 205.8 541C183 541 160 541 137.2 541C114.3 541 91.7 541 68.8 541C46 541 23 541 11.5 541L0 541Z" fill="#00abc9"></path><path d="M0 121L11.5 153.7C23 186.3 46 251.7 68.8 261.3C91.7 271 114.3 225 137.2 200.2C160 175.3 183 171.7 205.8 177C228.7 182.3 251.3 196.7 274.2 218.3C297 240 320 269 342.8 257.2C365.7 245.3 388.3 192.7 411.2 203.5C434 214.3 457 288.7 480 319.8C503 351 526 339 548.8 311.8C571.7 284.7 594.3 242.3 617.2 214.8C640 187.3 663 174.7 685.8 197.8C708.7 221 731.3 280 754.2 300.2C777 320.3 800 301.7 822.8 295C845.7 288.3 868.3 293.7 891.2 310.8C914 328 937 357 948.5 371.5L960 386L960 541L948.5 541C937 541 914 541 891.2 541C868.3 541 845.7 541 822.8 541C800 541 777 541 754.2 541C731.3 541 708.7 541 685.8 541C663 541 640 541 617.2 541C594.3 541 571.7 541 548.8 541C526 541 503 541 480 541C457 541 434 541 411.2 541C388.3 541 365.7 541 342.8 541C320 541 297 541 274.2 541C251.3 541 228.7 541 205.8 541C183 541 160 541 137.2 541C114.3 541 91.7 541 68.8 541C46 541 23 541 11.5 541L0 541Z" fill="#0596b9"></path><path d="M0 184L11.5 196.2C23 208.3 46 232.7 68.8 251C91.7 269.3 114.3 281.7 137.2 296.8C160 312 183 330 205.8 314.2C228.7 298.3 251.3 248.7 274.2 223.2C297 197.7 320 196.3 342.8 206.5C365.7 216.7 388.3 238.3 411.2 252.8C434 267.3 457 274.7 480 260.2C503 245.7 526 209.3 548.8 228.7C571.7 248 594.3 323 617.2 344.5C640 366 663 334 685.8 321.3C708.7 308.7 731.3 315.3 754.2 303.8C777 292.3 800 262.7 822.8 275.3C845.7 288 868.3 343 891.2 338.3C914 333.7 937 269.3 948.5 237.2L960 205L960 541L948.5 541C937 541 914 541 891.2 541C868.3 541 845.7 541 822.8 541C800 541 777 541 754.2 541C731.3 541 708.7 541 685.8 541C663 541 640 541 617.2 541C594.3 541 571.7 541 548.8 541C526 541 503 541 480 541C457 541 434 541 411.2 541C388.3 541 365.7 541 342.8 541C320 541 297 541 274.2 541C251.3 541 228.7 541 205.8 541C183 541 160 541 137.2 541C114.3 541 91.7 541 68.8 541C46 541 23 541 11.5 541L0 541Z" fill="#1381a8"></path><path d="M0 327L11.5 323.5C23 320 46 313 68.8 301.7C91.7 290.3 114.3 274.7 137.2 275.5C160 276.3 183 293.7 205.8 305.5C228.7 317.3 251.3 323.7 274.2 327.8C297 332 320 334 342.8 336.7C365.7 339.3 388.3 342.7 411.2 324.8C434 307 457 268 480 271.3C503 274.7 526 320.3 548.8 331.2C571.7 342 594.3 318 617.2 319C640 320 663 346 685.8 341C708.7 336 731.3 300 754.2 276.3C777 252.7 800 241.3 822.8 252.3C845.7 263.3 868.3 296.7 891.2 296.5C914 296.3 937 262.7 948.5 245.8L960 229L960 541L948.5 541C937 541 914 541 891.2 541C868.3 541 845.7 541 822.8 541C800 541 777 541 754.2 541C731.3 541 708.7 541 685.8 541C663 541 640 541 617.2 541C594.3 541 571.7 541 548.8 541C526 541 503 541 480 541C457 541 434 541 411.2 541C388.3 541 365.7 541 342.8 541C320 541 297 541 274.2 541C251.3 541 228.7 541 205.8 541C183 541 160 541 137.2 541C114.3 541 91.7 541 68.8 541C46 541 23 541 11.5 541L0 541Z" fill="#1c6d95"></path><path d="M0 430L11.5 431C23 432 46 434 68.8 413.7C91.7 393.3 114.3 350.7 137.2 332.5C160 314.3 183 320.7 205.8 344.2C228.7 367.7 251.3 408.3 274.2 405.2C297 402 320 355 342.8 344C365.7 333 388.3 358 411.2 355.3C434 352.7 457 322.3 480 313.8C503 305.3 526 318.7 548.8 330C571.7 341.3 594.3 350.7 617.2 364C640 377.3 663 394.7 685.8 393.2C708.7 391.7 731.3 371.3 754.2 369C777 366.7 800 382.3 822.8 395.5C845.7 408.7 868.3 419.3 891.2 399.8C914 380.3 937 330.7 948.5 305.8L960 281L960 541L948.5 541C937 541 914 541 891.2 541C868.3 541 845.7 541 822.8 541C800 541 777 541 754.2 541C731.3 541 708.7 541 685.8 541C663 541 640 541 617.2 541C594.3 541 571.7 541 548.8 541C526 541 503 541 480 541C457 541 434 541 411.2 541C388.3 541 365.7 541 342.8 541C320 541 297 541 274.2 541C251.3 541 228.7 541 205.8 541C183 541 160 541 137.2 541C114.3 541 91.7 541 68.8 541C46 541 23 541 11.5 541L0 541Z" fill="#215981"></path><path d="M0 357L11.5 362.7C23 368.3 46 379.7 68.8 399.7C91.7 419.7 114.3 448.3 137.2 450.8C160 453.3 183 429.7 205.8 422.3C228.7 415 251.3 424 274.2 434.8C297 445.7 320 458.3 342.8 446.2C365.7 434 388.3 397 411.2 383.7C434 370.3 457 380.7 480 398.2C503 415.7 526 440.3 548.8 432C571.7 423.7 594.3 382.3 617.2 374.2C640 366 663 391 685.8 410.2C708.7 429.3 731.3 442.7 754.2 433.3C777 424 800 392 822.8 373C845.7 354 868.3 348 891.2 355.5C914 363 937 384 948.5 394.5L960 405L960 541L948.5 541C937 541 914 541 891.2 541C868.3 541 845.7 541 822.8 541C800 541 777 541 754.2 541C731.3 541 708.7 541 685.8 541C663 541 640 541 617.2 541C594.3 541 571.7 541 548.8 541C526 541 503 541 480 541C457 541 434 541 411.2 541C388.3 541 365.7 541 342.8 541C320 541 297 541 274.2 541C251.3 541 228.7 541 205.8 541C183 541 160 541 137.2 541C114.3 541 91.7 541 68.8 541C46 541 23 541 11.5 541L0 541Z" fill="#22476c"></path><path d="M0 410L11.5 414.3C23 418.7 46 427.3 68.8 423.8C91.7 420.3 114.3 404.7 137.2 415C160 425.3 183 461.7 205.8 470C228.7 478.3 251.3 458.7 274.2 440.7C297 422.7 320 406.3 342.8 416.7C365.7 427 388.3 464 411.2 472.5C434 481 457 461 480 458C503 455 526 469 548.8 471.2C571.7 473.3 594.3 463.7 617.2 457.2C640 450.7 663 447.3 685.8 452C708.7 456.7 731.3 469.3 754.2 475C777 480.7 800 479.3 822.8 481C845.7 482.7 868.3 487.3 891.2 475.2C914 463 937 434 948.5 419.5L960 405L960 541L948.5 541C937 541 914 541 891.2 541C868.3 541 845.7 541 822.8 541C800 541 777 541 754.2 541C731.3 541 708.7 541 685.8 541C663 541 640 541 617.2 541C594.3 541 571.7 541 548.8 541C526 541 503 541 480 541C457 541 434 541 411.2 541C388.3 541 365.7 541 342.8 541C320 541 297 541 274.2 541C251.3 541 228.7 541 205.8 541C183 541 160 541 137.2 541C114.3 541 91.7 541 68.8 541C46 541 23 541 11.5 541L0 541Z" fill="#203557"></path><path d="M0 442L11.5 451.8C23 461.7 46 481.3 68.8 489.2C91.7 497 114.3 493 137.2 489.8C160 486.7 183 484.3 205.8 479.5C228.7 474.7 251.3 467.3 274.2 469.7C297 472 320 484 342.8 492C365.7 500 388.3 504 411.2 506.3C434 508.7 457 509.3 480 507.2C503 505 526 500 548.8 495.5C571.7 491 594.3 487 617.2 488.5C640 490 663 497 685.8 491.2C708.7 485.3 731.3 466.7 754.2 467.3C777 468 800 488 822.8 497.7C845.7 507.3 868.3 506.7 891.2 495C914 483.3 937 460.7 948.5 449.3L960 438L960 541L948.5 541C937 541 914 541 891.2 541C868.3 541 845.7 541 822.8 541C800 541 777 541 754.2 541C731.3 541 708.7 541 685.8 541C663 541 640 541 617.2 541C594.3 541 571.7 541 548.8 541C526 541 503 541 480 541C457 541 434 541 411.2 541C388.3 541 365.7 541 342.8 541C320 541 297 541 274.2 541C251.3 541 228.7 541 205.8 541C183 541 160 541 137.2 541C114.3 541 91.7 541 68.8 541C46 541 23 541 11.5 541L0 541Z" fill="#1c2442"></path></svg>