<svg id="visual" viewBox="0 0 450 900" width="450" height="900" xmlns="http://www.w3.org/2000/svg" xmlns:xlink="http://www.w3.org/1999/xlink" version="1.1"><rect x="0" y="0" width="450" height="900" fill="#1c2442"></rect><g transform="translate(247.48610215162435 471.69067936423977)"><path d="M149 -282.4C170.3 -245.7 149.1 -159.8 152.3 -104.5C155.6 -49.2 183.3 -24.6 205.4 12.8C227.6 50.2 244.1 100.3 239 152.4C233.9 204.5 207.2 258.6 163.8 261.3C120.3 264.1 60.2 215.5 3.6 209.3C-53 203.1 -106 239.3 -161.7 243.6C-217.4 247.9 -275.9 220.5 -283.9 174.6C-291.9 128.7 -249.4 64.3 -250.5 -0.6C-251.7 -65.6 -296.3 -131.3 -275.2 -154.3C-254 -177.4 -167 -158 -110.2 -174.2C-53.3 -190.4 -26.7 -242.2 18.6 -274.4C63.8 -306.6 127.7 -319.1 149 -282.4" fill="#00abc9"></path></g></svg>