<svg 
    id="visual" 
    viewBox="0 0 450 900" 
    width="450" 
    height="900" 
    xmlns="http://www.w3.org/2000/svg" 
    xmlns:xlink="http://www.w3.org/1999/xlink" 
    version="1.1">
    <g 
        transform="translate(226.58677843153959 445.7563885244432)">
        <path 
            d="M155.5 -272.6C205.3 -240.5 252 -206.5 276.3 -160.8C300.5 -115 302.3 -57.5 287 -8.8C271.7 39.8 239.3 79.7 210.1 116.8C180.8 153.9 154.7 188.2 120.2 233.9C85.7 279.6 42.8 336.7 4.8 328.3C-33.2 319.9 -66.3 246.1 -87.6 192.8C-109 139.5 -118.4 106.7 -159.5 77.9C-200.6 49.2 -273.3 24.6 -293.7 -11.8C-314.1 -48.2 -282.2 -96.3 -238.6 -120.7C-195 -145.1 -139.8 -145.7 -98 -182.5C-56.3 -219.2 -28.2 -292.1 12.3 -313.5C52.8 -334.8 105.7 -304.7 155.5 -272.6" 
            fill="#00abc9">
        </path>
    </g>
    <g 
        transform="translate(247.48610215162435 471.69067936423977)"
    >
        <path 
            d="M149 -282.4C170.3 -245.7 149.1 -159.8 152.3 -104.5C155.6 -49.2 183.3 -24.6 205.4 12.8C227.6 50.2 244.1 100.3 239 152.4C233.9 204.5 207.2 258.6 163.8 261.3C120.3 264.1 60.2 215.5 3.6 209.3C-53 203.1 -106 239.3 -161.7 243.6C-217.4 247.9 -275.9 220.5 -283.9 174.6C-291.9 128.7 -249.4 64.3 -250.5 -0.6C-251.7 -65.6 -296.3 -131.3 -275.2 -154.3C-254 -177.4 -167 -158 -110.2 -174.2C-53.3 -190.4 -26.7 -242.2 18.6 -274.4C63.8 -306.6 127.7 -319.1 149 -282.4" 
            fill="#00abc9">
        </path>
    </g>
</svg>